<?xml version="1.0" encoding="UTF-8"?>
<svg version="1.1" viewBox="0 0 1600 1280" width="800" height="640" xmlns="http://www.w3.org/2000/svg">
<path transform="translate(0)" d="m0 0h1600v1280h-1600z" fill="#F9FBFC"/>
<path transform="translate(814,126)" d="m0 0h18l12 4 10 7 7 8 5 10 2 7v17l-2 6h31l5 2 2 4v8l13-1h209l8 5 5 6 1 3 1 146v38l9-6 11-7 19-9 20-6 13-2h20l45 5 32 2 1 5-11 22-12 22-11 21-8 12-9 11-11 12-10 9-14 10-16 8-16 5-13 2h-15l-20-4-4-1v319h-3v2l4 2 13 13 8 7 10 10 8 7 3 2v-5l34-2 17-3 9-4 9-10 7-11 8-19 7-11 1-1 16-1 9-3h5l6 9 3 14-1 17-3 17v10l5 16 11 30 11 36 6 26 1 10-5 3-10 4-8 2h-12l-56-4-13-2 4-17 8-36 5-30 1-16-9 3-13 2h-28l18 18 3 5v11l-4 7-7 5h-12l-7-4-14-14-8-7-8-8-16-14v-2l14-1 16-1 1-12-8-4-6-4-9-1v3l4 1-2 2-11 2h-4l-1 6 7 2v1h-9l-5-4v198l78 3h13l4-16 9 3 16 5-1 5-2 6h18l34 2-1-8v-9l19-2 7-1v23h12l23 2 5 1-6-17-1-4v-16l6-8 5-1 5 5 4 10 1 5 5-22 4-12 6-8 5-3 7 2 2 2v14l-6 25-3 9v3l6-8 7-6 6-1 6 4 2 7-4 9-12 13-2 3 22 3 19 4 14 5 4 4-2 4-10 5-22 5-32 5-58 6-71 5-73 4-77 3-65 2-95 2-109 1h-129l-107-1-95-2-90-3-73-3-95-6-48-4-50-6-29-5-14-4-8-4-2-2 1-4 7-4 13-4 27-5 29-4h13l-1-4v-42l4-34v-54l2-24 1-7 1-1 49-5 25-2h11l2 13 2 40v62l4 46v3l32-2v-3l-1-3v-10l3-3h7l16 8-7-22-3-13v-14l4-7 3-2 7 1 5 4 5 11 5 25 2 16 3-22 5-18 5-9 5-4 5 1 5 5 3 6v9l-4 18-8 23 60-3-2-13v-48h-13l-2-1v-41l2-22 6-36 1-11-4-1-1-1-31-4-20-2-10-3-7-5-2-3v-9l5-10 14-19 12-14 11-9 13-9h2l2-4 1-1 1-11-6-4-4-6-5-18v-13l4-8 8-7 5-3h16l8 5 3 3 1 3 1 11 3 5-1 9 1 8-3 7 1 2 13-1 13-5h2l-1-6v-89l-1-2h2l-1-6v-35l1-4-2-1 1-2 1-192-11 7-14 7-15 5-16 3-37 3h-16l1-5 12-36 7-20 8-14 12-13 9-8 13-8 11-4 4-1h21l10 2v-20l-21 6-13 2h-20l-19-3-18-6-19-9-17-11-14-11-10-11-9-14-6-13-6-19-5-25v-9l8 1 3 1h12l40-10 12-2 11-1h18l15 2 16 5 16 9 21 18 5 6 1-43 6-9 7-4h222v-7l3-6 6-1h28l-2-11 1-13 4-11 6-9 10-9 11-5z" fill="#D2E2FC"/>
<path transform="translate(594,712)" d="m0 0h66l5 4 1 3v63l-5 6-4 1h-60l-6-3-2-4v-29l-9 2-2 2-2 4-8 7-7 8-9 10-11 9-11 10-5 5-5 8-3 9-2 16v11l3 18 8 24 7 19 4 17 4 29 2 26v22l-9 3-5 1-2 14v10l1 10v14l-3 19-2 13v15h222v-10l1-4h2v-17h-14l-1-2v-13l4-3v-14l5-1h10l-1-18-9-2-1-2v-14l6-1 1-15 5-2 1-17 1-1h114l-1 17h-5l-1 18h-6v19h9l2 6-1 13 8 6 6 7 6 12 2 7v20l-3 9 11 1h54l4-1-5-10v-8l5-6 4-2h9l10 6 13 12 2 2-8-18-4-14-1-13 3-6 6-3h8l6 3 7 8 4 11 5 27 7-27 7-20 6-11 5-6 4-2 9 1 5 5 3 6v15l-4 17-10 29-3 6 18-1 2-9 8-16 8-7 2-1h6l4 4 1 6-4 16-2 7h31l9-2 5-3 4-7 1-16 3-1 76 3h13l4-16 9 3 16 5-1 5-2 6h18l34 2-1-8v-9l19-2 7-1v23h12l23 2 5 1-6-17-1-4v-16l6-8 5-1 5 5 4 10 1 5 5-22 4-12 6-8 5-3 7 2 2 2v14l-6 25-3 9v3l6-8 7-6 6-1 6 4 2 7-4 9-12 13-2 3 22 3 19 4 14 5 4 4-2 4-10 5-22 5-32 5-58 6-71 5-73 4-77 3-65 2-95 2-109 1h-129l-107-1-95-2-90-3-73-3-95-6-48-4-50-6-29-5-14-4-8-4-2-2 1-4 7-4 13-4 27-5 29-4h13l-1-4v-42l4-34v-54l2-24 1-7 1-1 49-5 25-2h11l2 13 2 40v62l4 46v3l32-2v-3l-1-3v-10l3-3h7l16 8-7-22-3-13v-14l4-7 3-2 7 1 5 4 5 11 5 25 2 16 3-22 5-18 5-9 5-4 5 1 5 5 3 6v9l-4 18-8 23 60-3-2-13v-48h-13l-2-1v-41l2-22 6-36 1-11-4-1-1-1-31-4-20-2-10-3-7-5-2-3v-9l5-10 14-19 12-14 11-9 13-9h2l2-4 1-1 1-11-6-4-4-6-5-18v-13l4-8 8-7 5-3h16l8 5 3 3 1 3 1 11 3 5-1 9 1 8-3 7 1 2 13-1 15-6 18-12 15-11 18-10 15-8 8-7 6-9 1-12 3-5z" fill="#8ABC62"/>
<path transform="translate(814,126)" d="m0 0h18l12 4 10 7 7 8 5 10 2 7v17l-2 6h31l5 2 1 2v38l-1 2-3 1h-152l-4-4v-11l-219 1v422l4 2-13 2-4 2h-3v-193l-11 7-14 7-15 5-16 3-37 3h-16l1-5 12-36 7-20 8-14 12-13 9-8 13-8 11-4 4-1h21l10 2v-20l-21 6-13 2h-20l-19-3-18-6-19-9-17-11-14-11-10-11-9-14-6-13-6-19-5-25v-9l8 1 3 1h12l40-10 12-2 11-1h18l15 2 16 5 16 9 21 18 5 6 1-43 6-9 7-4h222v-7l3-6 6-1h28l-2-11 1-13 4-11 6-9 10-9 11-5z" fill="#BED6FE"/>
<path transform="translate(966,600)" d="m0 0h24l19 4 16 7 13 8 10 8 10 11 8 11 7 14 5 15 2 12v26l-3 15-6 16-8 14-8 10-12 12-15 10-18 8-17 4-8 1h-17l-15-3-16-5-17-9-14-11-10-11-9-14-7-15-5-21-1-18 2-18 6-18 7-14 4-6h-13v-1l12-1 5-3 11-12 11-9 12-7 14-6z" fill="#D2E2FD"/>
<path transform="translate(594,712)" d="m0 0h66l5 4 1 3v63l-5 6-4 1h-60l-6-3-2-4v-29l-9 2-2 2-2 4-8 7-7 8-9 10-11 9-11 10-5 5-5 8-3 9-2 16v11l3 18 8 24 7 19 4 17 4 29 2 26v22l-9 3-16 3-14 1 2 23v38h-17v-3l1-41 2-16h-24l-13-1-2-1v-41l2-22 6-36 1-11-4-1-1-1-31-4-20-2-10-3-7-5-2-3v-9l5-10 14-19 12-14 11-9 13-9h2l2-4 1-1 1-11-6-4-4-6-5-18v-13l4-8 8-7 5-3h16l8 5 3 3 1 3 1 11 3 5-1 9 1 8-3 7 1 2 13-1 15-6 18-12 15-11 18-10 15-8 8-7 6-9 1-12 3-5z" fill="#668FD3"/>
<path transform="translate(1162,867)" d="m0 0h9l9 6 6 3-1 9-1 3-26 3-4-1v2l4 2 10 10 8 7 8 8 8 7 8 8 7 4h12l6-4 4-7v-11l-5-8-8-7-7-6v-2l28-1 13-2 9-3 1 1-1 16-5 30-8 36-4 15-1 2 69 5h15l-2 1 9 28 1 5 1 14v26l-6 2-8 1h-11l2 17-2 1-51-3 1-6 2-5-7-1-16-6-2-1-1 7-2 9-1 1h-13l-76-3-2-1-1-55v-145l6 5h8l-7-2 1-4 1-2 15-3 1-1-3-1z" fill="#F9FBFC"/>
<path transform="translate(303,698)" d="m0 0 10 2 22 6 1-2 4 2 1-5 3-2 5 1 3 2v8h4l1 2 28 8 1 1-1 10-6 20-5 20-1 2h2l1 8-5 15-5 14-2 21-5 8-7 3h-8l-21-7-16-5-7-3-2-1 1 30 3 20 5 23 2 13v8l-2 1-2 3v-3l-67 6-20 2-2-3-2-25-2-54-2-16-4-18v-14l5-8 8-6 10-5h2l2-5 3-5-2-4-5-9-3-18v-11l5-8 6-5 4-1h12l15 1 6 7 1 9-4 6 1 5 2 5-3 8-2 8-2 4v9l5-5 7-8 4-4 3-1 16-58z" fill="#F7D1C3"/>
<path transform="translate(1301,799)" d="m0 0h5l6 9 3 14-1 17-3 17v10l5 16 11 30 11 36 6 26 1 10-5 3-10 4-8 2h-12l-56-4-13-2 4-17 8-36 5-30 1-16-9 3-13 2h-28l18 18 3 5v11l-4 7-7 5h-12l-7-4-14-14-8-7-8-8-16-14v-2l14-1 16-1 1-12-8-4-6-4-9-1v3l4 1-2 2-11 2h-4l-1 6 7 2v1h-9l-11-11-8-7-7-7-8-7-8-8-8-7-10-10 2-4 7-7 7-8 7-7 4 2 8 8 8 7 9 9 8 7 9 9 8 7 10 10 8 7 3 2v-5l34-2 17-3 9-4 9-10 7-11 8-19 7-11 1-1 16-1z" fill="#CA3040"/>
<path transform="translate(755,972)" d="m0 0h114l-1 17h-5l-1 18h-6v19h9l2 6-1 13 8 6 6 7 6 12 2 7v20l-5 14-8 11-8 7-12 6-7 2h-19l-14-4-10-4h-20l-33-1-1-1-1-14-5-2-1-3 2-14h2v-17h-14l-1-2v-13l4-3v-14l5-1h10l-1-18-9-2-1-2v-14l6-1 1-15 5-2 1-17z" fill="#FEC358"/>
<path transform="translate(416,215)" d="m0 0h18l15 2 16 5 16 9 21 18 6 8v91l-10 4-17 4-8 1h-20l-19-3-18-6-19-9-17-11-14-11-10-11-9-14-6-13-6-19-5-25v-9l8 1 3 1h12l40-10 12-2z" fill="#29704F"/>
<path transform="translate(628,292)" d="m0 0h35l88 1 11 4 8 6 4 9 1 15v91l-1 46-10 12-4 3-4-10-10-18-9-8-9-4-14-3-10-1-6-5-1-3v-8l9-4 7-7 7-11 5-14 1-11h2l1-13v-19l-3-10-6-7-16-12-10-3-8-1h-20l-9 3-8 5-3 1-2 4-7 11-3 5-4 12-1 6v14l4 10 3 4v2l-6 3-7 8-3 6v13l4 5 8 4h7l12-5 3-2h3l1 16-3 6-16 7-12 5-11 7-4 6-2 17-7-1-9-6-5-8-2-6-1-22v-87l1-35 4-9 7-8 7-4 3-1z" fill="#F9FBFC"/>
<path transform="translate(1213,366)" d="m0 0h20l45 5 32 2 1 5-11 22-12 22-11 21-8 12-9 11-11 12-10 9-14 10-16 8-16 5-13 2h-15l-20-4-5-3v-107l8-7 13-8 19-9 20-6z" fill="#29704F"/>
<path transform="translate(666,306)" d="m0 0h20l12 2 9 4 11 9 6 5 4 7 2 7v19l-2 13h-2v11l-7 18-8 10-6 6-8 2 2 11 5 4 15 2 11 3 10 5 7 7 13 24v4l-3 1-18 1h-108l-21-1v-12l3-9 7-6 10-5 21-9 4-2 2-5v-16l-15 7-3 1h-7l-8-4-5-6v-13l5-9 7-7 5-1-6-10-2-6v-14l3-12 4-9 7-12 4-5 9-6 6-3z" fill="#FCB095"/>
<path transform="translate(903,191)" d="m0 0h1v8l13-1h209l8 5 5 6 1 3 1 146v147l1 2-1 48v113l-1 152-2 1-3-1-4-4-6-4-1-3v-593l-220-1v10h-1z" fill="#BED6FE"/>
<path transform="translate(974,584)" d="m0 0h10l15 2 15 4 13 5 15 8 14 11 12 12 11 15 10 21 4 13 3 20v16l-3 19-7 21-6 13 13 12 10 10 6 5 2 4-1 6-13 13-7 8-4 5-5 2-5-1-3-2v-2l-4-2-13-13-8-7-4-1-10 6-15 7-19 5-14 2h-18l-14-2-15-4-17-7-14-9-13-11-11-12-9-13-9-19-5-18-2-14v-17l2-15 5-19 8-16 6-10 8-10 11-12 20-14 13-6 15-5 15-3zm-8 16-21 4-16 7-11 7-10 8-8 8-5 6-3 1-12 1v1h13l-8 13-6 15-3 10-2 18 1 18 5 21 9 19 9 12 10 11 14 10 15 8 16 5 15 3h17l17-3 13-4 16-8 13-9 14-14 7-10 8-16 5-15 2-11v-26l-3-16-8-20-7-11-13-15-8-7-14-9-13-6-13-4-11-2z" fill="#6790D4"/>
<path transform="translate(294,921)" d="m0 0h11l2 13 2 40v62l4 46 1 14 1 3v7l-4 4-5 1h-11l-3-3 1-13-5-18-7-31-3-20-3-29-5-17-7-23-3-9-8 30-8 36-5 30-2 10-1 10-1 26-1 2v14l-2 4-6 1-12-2-3-4 1-15v-42l4-34v-54l2-24 1-7 1-1 49-5z" fill="#CA3040"/>
<path transform="translate(814,126)" d="m0 0h18l12 4 10 7 7 8 5 10 2 7v17l-2 6h31l5 2 1 2v38l-1 2-3 1h-152l-3-3v-38l2-3 6-1h28l-2-11 1-13 4-11 6-9 10-9 11-5z" fill="#6790D3"/>
<path transform="translate(476,367)" d="m0 0h21l10 2 1 1v80l-7 6-16 8-13 5-20 4-37 3h-16l1-5 12-36 7-20 8-14 12-13 9-8 13-8 11-4z" fill="#29704F"/>
<path transform="translate(1250,988)" d="m0 0 43 3 17 1h15l-2 1 9 28 1 5 1 14v26l-6 2-8 1h-11l2 17-2 1-51-3 1-6 2-5-7-1-16-6v-4l4-11 5-17 2-14z" fill="#FDB297"/>
<path transform="translate(304,701)" d="m0 0 8 1 21 6 2 3 19 5 5-1 25 7-1 7-13 47-2 6h-6l-5 6-1 2-1 11-2 1-37-10-11-3v2l-9-1-14-6 1-7 7-26z" fill="#F7FAFC"/>
<path transform="translate(416,215)" d="m0 0h18l15 2 16 5 16 9v3l3 21 6 16 12 25 1 7v8l-1 4h-5l-7-5v-2l-4-2-24-13-10-5-2-15-8-17-9-14-7-16-3-9-2-1 7 18 8 16 9 15 4 11v9l-4 1-37-13-9-4-3-9-6-15-12-19v-3l-2-1 23-5z" fill="#38845F"/>
<path transform="translate(666,306)" d="m0 0h20l12 2 9 4 11 9 6 5 4 7 2 7v19l-2 12h-2l-7-21-4-8-5-7h-2l-6 9-8 7-24 13-9 12-4 9v29l-3 3-12 6-3 1h-7l-8-4-5-6v-13l5-9 7-7 5-1-6-10-2-6v-14l3-12 4-9 7-12 4-5 9-6 6-3z" fill="#26100B"/>
<path transform="translate(598,837)" d="m0 0h58l6 2 3 3 1 3v62l-4 6-2 1-28 1-37-1-4-2-2-4v-65l4-5z" fill="#D4E2FB"/>
<path transform="translate(595,963)" d="m0 0h64l5 3 2 4v62l-3 5-3 2-5 1h-57l-7-3-2-4v-65l3-4z" fill="#D3E2FB"/>
<path transform="translate(594,716)" d="m0 0h66l2 2v64l-4 3h-61l-3-1-1-2v-33l4-1v-8l-5-4 1-19z" fill="#D3E2FB"/>
<path transform="translate(260,946)" d="m0 0 2 3 8 28 5 15 2 12 3 30 5 25 5 23v5l-50 4h-5v-27l2-15 4-21 3-20 12-50z" fill="#F9F9F9"/>
<path transform="translate(842,414)" d="m0 0h214l4 4v11l-1 3-3 2h-214l-3-2-1-3v-10l2-4z" fill="#C53743"/>
<path transform="translate(709,436)" d="m0 0h10l11 3 10 5 7 7 13 24v4l-3 1-18 1h-108l-21-1v-12l3-9 7-6 10-5 8-3 5 1 5 4 13 7 11 2h17l12-5 7-9v-8z" fill="#FEC358"/>
<path transform="translate(523,1086)" d="m0 0h1v8l5-2 4-3 214-1-2 20h-222l-1-2v-13z" fill="#BDD5FE"/>
<path transform="translate(1125,866)" d="m0 0 5 2 10 9 1 3v199l-1 16-5 8-5 3-9 2h-31l-1-3 3-8 8-4 3-2 20-3 1-15v-200z" fill="#BED6FE"/>
<path transform="translate(1198,428)" d="m0 0 15 5 21 2 27 1 12 2 4 3-2 5-9 13-11 13-9 1-19 3h-36l-18-3-17-5-11-4 4-4 16-11 10-7 20-12z" fill="#38845F"/>
<path transform="translate(431,285)" d="m0 0 8 1 16 6 14 6 12 7-1 2-9 2-10 7-11 6-15 10-18 10-9 1-5-1-16-9-16-12-10-9-2-7 2-1 31-2 16-4z" fill="#38845E"/>
<path transform="translate(1169,379)" d="m0 0h2l-2 4-6 5-9 12-9 16-3 6v43l25 8 21 4 10 1h25l22-3h6l-6 7-14 11-15 9-16 6-13 3-7 1h-15l-20-4-5-3v-107l8-7 13-8z" fill="#39845F"/>
<path transform="translate(501,394)" d="m0 0h2v12l-4 20-8 20-8 13-4 5 1 2-16 5-22 3-27 2h-16l1-3v2l4-2 18-14 3-3 2 1-3 6-2 9-1 1 2 1 1-8 8-16 11-12 9-10 11-8h1v7l-4 13-9 23-2 9h2l1-9 10-26 3-11 1-9 16-11 15-9z" fill="#38845F"/>
<path transform="translate(1109,801)" d="m0 0 4 2 8 8 8 7 9 9 8 7 9 9 8 7 10 10 16 14v2l-6-1-6-3-6-4-9-1v3l4 1-2 2-11 2h-4l-1 6 7 2v1h-9l-11-11-8-7-7-7-8-7-8-8-8-7-10-10 2-4 7-7 7-8z" fill="#250F0B"/>
<path transform="translate(902,725)" d="m0 0h8l12 1 15 1 4 1h57l60 1 2 1-1 4-1 1h-112l-11 2-20 3v-2l-4 2-2 2h-4l1 9 6-5h7l2-1 11 1h70l12 1 41 1 2 1-1 4-49 1h-67l-16 2-10 2-4 4h-4l2 7 8 10 7 8 4 4-5-1-11-8-10-9-10-13-9-17-3-9v-6l18-1z" fill="#F9FBFD"/>
<path transform="translate(480,309)" d="m0 0h6l13 10 5 4v2l4 1v22l-10 4-17 4-8 1h-20l-19-3-18-6-2-1 1-3 17-8 28-18 10-5z" fill="#38845F"/>
<path transform="translate(821,136)" d="m0 0 11 1 9 4 8 6 6 9 3 10v9l-3 10-62 1-3-5-1-5v-10l3-10 6-9 7-6 10-4z" fill="#F8FBFD"/>
<path transform="translate(1286,992)" d="m0 0h4l5 15 5 11 4 13 3 16 1 2 1 15v8l2 14-2 1-51-3 1-6 5-12 10-23 4-13 2-19z" fill="#F9FBFC"/>
<path transform="translate(984,294)" d="m0 0h19l17 57v4h2l3-12 15-49h19l-3 11-13 37-12 35-1 1h-14l-4-1-13-37-15-43z" fill="#668FD3"/>
<path transform="translate(938,293)" d="m0 0h16l10 4 6 4 7 10 2 7v4h-16l-5-10-3-3-3-1h-12l-6 4-4 8-1 7v16l3 14 5 5 6 2 10-1 5-2 2-5 2-6h17l-1 9-6 9-7 6-6 3-4 1h-19l-12-6-7-8-4-9-2-9v-22l4-13 8-11 8-5z" fill="#6790D4"/>
<path transform="translate(1213,366)" d="m0 0h20l17 2-5 6h-2l-2 4-6 7-8 21-4 7-23 12-23 14-8 5-2-1 10-24 8-15 9-14 11-19v-4z" fill="#39845F"/>
<path transform="translate(450,741)" d="m0 0h16l8 5 3 3 1 9-3 16v12l-4 10-5 4h-2l2 4v8l-3 5-4 2h-6l-4-4-1-2v-13l-6-4-4-6-5-18v-13l4-8 8-7z" fill="#26100B"/>
<path transform="translate(1200,368)" d="m0 0h4l-2 6-9 16-6 9-10 17-8 18-4 12-8 7-14 9h-2v-40l9-17 8-12 7-8 5-4 1-3 15-6z" fill="#38845F"/>
<path transform="translate(337,263)" d="m0 0 9 3 5 2 15 1 18-2 7 1 18 7 19 7v2l-7 4-13 8-13 4-25 2-16 1-7-11-6-13-4-12z" fill="#38845F"/>
<path transform="translate(1078,764)" d="m0 0 4 2 10 9 11 11 6 5 2 4-1 6-13 13-7 8-4 5-5 2-5-1-3-2v-2l-4-2-13-13-8-7v-4l15-13 9-11 5-7z" fill="#46728A"/>
<path transform="translate(614,652)" d="m0 0h206l-2 5-20 1-3-1-1-1v17l-2 3-1-3-2-2h2v-14h-9l-5 1-5-1h-6v14l4-2 1 1 2-3h4l1 6-5 1-7-1v10l-1 6h-1l-1-15-7-1-1 3-1-3-14 1-4-1v3h-2v-3l-16 1h-8l-1 3h-2l-1-3-11-1v-6l5 1 6 3v-13l-10-1-2-1v2l-6-1-18 1-11-1-1 1h-11l-1-4-1 4-4 1-1-3-5 3h-3v-2l-5 4h-3l1-4-11 1v-2l-5 3h-2l-1-3-2 5-3 1-1-5-2 1h-9l-1-2 2-3h18z" fill="#F9FBFD"/>
<path transform="translate(1178,888)" d="m0 0h6l9 2 15 2 19 19 3 5v11l-4 7-7 5h-12l-7-4-14-14-8-7-8-8-16-14v-2l14-1z" fill="#26100B"/>
<path transform="translate(1261,402)" d="m0 0h25l11 2-8 16-10 19-7-3-6-1-42-2-11-1-10-4v-3l16-8 20-8z" fill="#38845F"/>
<path transform="translate(241,714)" d="m0 0h12l15 1 6 7 1 9-9 14-3 8-1 9-5 6-6 3-13-2-5-5-4-7-3-18v-11l5-8 6-5z" fill="#26100C"/>
<path transform="translate(1286,730)" d="m0 0h12l11 4 6 5 5 10 1 4v8l-3 9-4 6 4 2 3 6-1 7-4 4-9-1-10-8-5-8-6-15v-5h-2l-8-8-2-5v-6l4-6z" fill="#92605C"/>
<path transform="translate(476,367)" d="m0 0h21l10 2 1 1v19l-11 7-8 5h-28l-22 3h-13l3-5 9-10 10-9 13-8 11-4z" fill="#39845F"/>
<path transform="translate(521,643)" d="m0 0 3 1-4 2 1 3h2v2l-10 6-2 3-1 5v8l3 7 6 4 4 1v2l-3 1-10-7 1 6 12 3 10-1 4-1-3 3-3 1h-14l-7-3 2 5 9 2h8l8-3 7-8 4-8 2-11h1v9l-4 9-6 8-6 5-11 2-1 64v12l-3 4-4 4-8 4-1-5v-89l-1-2h2l-1-6v-35l8-5z" fill="#BFD6FE"/>
<path transform="translate(966,600)" d="m0 0h24l19 4 10 4v2l-11 3-2 1v4l11 3 3 2-1 3h-15l-24 1h-16v2l-2 1h-10v-5h-3v-4h-2l-1 4-3-1 2-5v-13l4-3z" fill="#F8FAFD"/>
<path transform="translate(1252,369)" d="m0 0 15 1 43 3-4 2-10 7-19 11-13 6-35 12h-2l3-9 6-16 8-10 6-5h2z" fill="#39855F"/>
<path transform="translate(1236,1065)" d="m0 0 9 3 16 5-1 5-10 22-4 18-1 2-8-1-15-6-24-7-2-2 1-5 4-3 3-1 22-1 5-10z" fill="#24100B"/>
<path transform="translate(1332,1066)" d="m0 0h2l1 28 4 18-1 5-2 1-23 1-18 3h-7l-2-2 1-6 8-6 15-8 1-2v-12l-2-8v-9l19-2z" fill="#240F0B"/>
<path transform="translate(754,891)" d="m0 0h120l39 1 3 1-1 5-4 1h-203l-1-1v-6z" fill="#FAFCFD"/>
<path transform="translate(918,442)" d="m0 0h138l3 3v6l-3 2h-138l-3-3 1-6z" fill="#467289"/>
<path transform="translate(618,555)" d="m0 0h351l33 1h1 4v2l2 1-9 1h-238l-142-1z" fill="#FAFCFD"/>
<path transform="translate(589,620)" d="m0 0h303l-2 4-4 2-297-1-1-4z" fill="#F9FBFD"/>
<path transform="translate(850,853)" d="m0 0h209v7h-208l-4-4v-2z" fill="#FAFCFD"/>
<path transform="translate(594,712)" d="m0 0h66l5 4 1 3v63l-5 6-4 1h-60l-6-3-2-4v-29l-9 2-4 1-4-6 2-4 8-7 6-9 1-12 3-5zm0 4-1 1-1 19 5 4v8l-4 1v33l1 2 3 1h61l4-3v-64l-2-2z" fill="#3B776B"/>
<path transform="translate(862,991)" d="m0 0h1v7h193l2 1v6h-173l-19-1-2-2-1 5h-1z" fill="#F9FBFC"/>
<path transform="translate(526,1013)" d="m0 0 3 1-2 13v10l1 10v14l-2 14-6 1h-12l-2-1-1-36-1-11v-12z" fill="#93625D"/>
<path transform="translate(615,571)" d="m0 0h254l110 1 2 3-17 1h-86l-9-1-17 1-18-1-39-1-15 1h-17l-21-1h-12l-8 1h-106z" fill="#FAFCFD"/>
<path transform="translate(589,636)" d="m0 0h269l-1 6h-4v-2l-12-1-9 1-3 2h-43l-25-3-1 3-19-1h-7l-2 1h-33l-3-1-34 1-25-1h-48l-1-4z" fill="#FAFCFD"/>
<path transform="translate(588,604)" d="m0 0h311l-1 5-309-1z" fill="#FAFCFD"/>
<path transform="translate(468,1017)" d="m0 0h24l-1 16-1 41-1 1h-19l-2-11z" fill="#93625D"/>
<path transform="translate(895,1088)" d="m0 0h41l13 1 2 9 4 9-5 1h-54l-12-1 5-16 2-2z" fill="#BED6FE"/>
<path transform="translate(463,402)" d="m0 0h21l-5 5-18 13-13 10-24 1-11 3 3-11 5-12 4-5 19-2z" fill="#38845F"/>
<path transform="translate(598,837)" d="m0 0h58l6 2 3 3 1 3v62l-4 6-2 1-28 1-37-1-4-2-2-4v-65l4-5zm-4 5-1 1v65l2 2h65l2-3v-63l-1-2z" fill="#528D66"/>
<path transform="translate(373,223)" d="m0 0 3 1 2 4 11 19 4 8 2 7v5l-12-5-19-10-21-14-7-6-1-5 6 1h12z" fill="#39845F"/>
<path transform="translate(1275,748)" d="m0 0 4 5 5 3v2h2l3 10 6 14 5 6 4 3 3 9-9 1-6 2h-16l3-12v-3l-8-2-3-3-1-16-2-1 1-4 3-3 4-8z" fill="#FDB296"/>
<path transform="translate(723,506)" d="m0 0 148 1v1l-11 2h-9l-6 1h-258v-4z" fill="#FAFCFD"/>
<path transform="translate(595,963)" d="m0 0h64l5 3 2 4v62l-3 5-3 2-5 1h-57l-7-3-2-4v-65l3-4zm0 4-2 2-1 5 1 60 2 2h64l3-4v-63l-3-2z" fill="#417D6D"/>
<path transform="translate(866,746)" d="m0 0h2l2 5v4l-9-1h-154v-7z" fill="#F9FBFD"/>
<path transform="translate(443,845)" d="m0 0h2l10 21 5 15 1 9h-3v-2l-17-3-24-7v-3l12-12 9-11z" fill="#F4F8FD"/>
<path transform="translate(493,1016)" d="m0 0h11l2 23v38h-17v-3l1-41 2-16z" fill="#F8F8F9"/>
<path transform="translate(709,853)" d="m0 0h125l-1 7-7 1-118-1v-6z" fill="#FAFCFD"/>
<path transform="translate(708,766)" d="m0 0h114l10 1v6h-126v-6z" fill="#FAFCFD"/>
<path transform="translate(483,234)" d="m0 0 4 2 11 10 5 5 5 6v67h-1l-2-24-3-8-9-19-4-8-4-11-2-11z" fill="#3D8665"/>
<path transform="translate(523,1078)" d="m0 0h2l-2 15v13l2 4-1 7-7 7-7 1-4-2-1-2v-42z" fill="#240F0B"/>
<path transform="translate(471,1078)" d="m0 0h19l1 41-3 5-6 1-5-3-7-8 1-6 1-2v-17z" fill="#240F0A"/>
<path transform="translate(330,226)" d="m0 0 4 1h-3v5l4 1 11 9 21 14 10 6 2 3-1 1-10 1h-12l-9-2-8-4-2-2-2 1-5-25z" fill="#39845F"/>
<path transform="translate(438,431)" d="m0 0 8 1-6 8-18 18-9 7-11 7-2 1 3-11 9-27 2 1 11-4z" fill="#3A855F"/>
<path transform="translate(907,647)" d="m0 0 8 6 2 1 2-4 1 4 8-2h5l4-1 8 1 4-1v-3h3l-1 4 8-1 12 1 5-1 9 1-1 4-2 4h-4l-2-2-4 3-2 9-3 3h-2l-3-4h-2v-9l3-1v2l6-3-4-1-6 1-1 28-2 6h-2v-27l1-1v-6l-1 3-5-1 1-4h-2v5h-3l-2-3-1 2h-2v2l-3-1v-3l-8-1h-11l-3-1-9 1-3-1v-3h2l1-5z" fill="#F9FBFD"/>
<path transform="translate(303,698)" d="m0 0 10 2 22 6 1-2 4 2 1-5 3-2 5 1 3 2v8h4l1 2 28 8 1 1-1 10-6 20-5 20-3 9-2 4-2-2 8-27 9-33-7-1-22-6-1 2-19-5-2-3-29-8-2 11-12 43-8 28h-2l1-7 3-11 2-5 4-17 12-43z" fill="#43553E"/>
<path transform="translate(651,728)" d="m0 0 5 2-1 6-22 28-9 12-6-1-9-10-7-8-3-3 2-4 2-2 4 1 11 10 1 3 5 2 2-7 5-4 1-3 3-2 1-3 4-4 6-9z" fill="#FEC45C"/>
<path transform="translate(650,980)" d="m0 0h5l1 4-6 9-14 18-8 10-5 7-4-2-7-7-7-8-5-5v-5l1-1 7 1 9 9 2 1v3l5 1 2-5 6-8 1-2h2l1-4h2l1-4h2l2-4z" fill="#FEC35A"/>
<path transform="translate(957,873)" d="m0 0h101v6h-110l-4-2 3-3z" fill="#FAFCFD"/>
<path transform="translate(651,854)" d="m0 0 5 1-1 5-9 13-11 14-11 15-4-1-11-11-9-11v-4h6l8 7 7 6 2 1 1-3h2l2-4 3-5 5-5 10-14z" fill="#FEC45A"/>
<path transform="translate(476,367)" d="m0 0h21l10 2 1 1v19h-1v-9l-40 1-21 3 2-4 13-8 11-4z" fill="#3E875F"/>
<path transform="translate(1162,867)" d="m0 0h9l9 6 6 3-1 9-1 3-26 3h-5l-6-7 7-1-7-2 1-4 1-2 15-3 1-1-3-1z" fill="#F1AA8E"/>
<path transform="translate(910,624)" d="m0 0h3l-1 4-4 2h-2l-1 4 7 1h34l5-3 11 1 3 1 27 2 3 1v2l-16 2-8-1h-15l-3 2h-3l-2 4h-4l-1-3h-9l-2-2h-10l-1 1-1 7-3-3 1-5h-2l-1 2-7 1-1 3-4-5-5-2 1-4 7-8z" fill="#F9FBFD"/>
<path transform="translate(614,652)" d="m0 0h81l28 1-1 4-10 1-4-2-1 3-1-1-10-1-2-1v2l-6-1-18 1-11-1-1 1h-11l-1-4-1 4-4 1-1-3-5 3h-3v-2l-5 4h-3l1-4-11 1v-2l-5 3h-2l-1-3-2 5-3 1-1-5-2 1h-9l-1-2 2-3h18z" fill="#F9FBFD"/>
<path transform="translate(507,390)" d="m0 0h1v60l-7 6-13 7-5-1 6-11 7-14 5-15 3-19 1-11h2z" fill="#408962"/>
<path transform="translate(1204,368)" d="m0 0h2l-1 5-16 27-8 13-8 17-5 13 5-1-2 4-12 8-10 7-3 2 12 5 25 6 8 1h36l24-4h3l-2 4-19 3-10 1h-25l-22-3-19-5-15-5-1-4 12-7 11-9 6-17 8-17 13-21 9-15z" fill="#29704F"/>
<path transform="translate(626,587)" d="m0 0h141l3 2-3 2h-140l-5-1v-2z" fill="#FAFCFD"/>
<path transform="translate(507,326)" d="m0 0h1v22l-10 4-17 4-8 1h-20l3-1 1-4 5-4 11-4 19-2 10-4h5z" fill="#3E8762"/>
<path transform="translate(706,729)" d="m0 0h100l1 4-1 1h-100z" fill="#FAFCFD"/>
<path transform="translate(1169,379)" d="m0 0h2l-2 4-6 5-9 12-9 16-3 6-1 83h-1v-107l8-7 13-8z" fill="#46887A"/>
<path transform="translate(918,442)" d="m0 0h138v1l-122 1 3 3v3l-3 1 122 1v1h-138l-3-3 1-6z" fill="#658ED1"/>
<path transform="translate(728,656)" d="m0 0 4 1 3-1 1 5 3-4 9-1 6 2v-2l10 1v11l-1 2-7 1-2-5-1 5-4-1v-3l-3 1-1 2h-3v-8h-2v8h-4l-1-2-1 3-4-1-4 1v-13z" fill="#D2E2FD"/>
<path transform="translate(868,979)" d="m0 0h87v1l-14 3-13 1-7 1h-52l-1 3z" fill="#F9FBFB"/>
<path transform="translate(598,837)" d="m0 0h58l5 1-3 1 1 3-65 1-1 62h-1l-1-32v-29l-2 3 1-6 3-3z" fill="#5B9A68"/>
<path transform="translate(792,587)" d="m0 0 114 1 2 2-2 2h-57l-62-1-4-3z" fill="#FAFCFD"/>
<path transform="translate(595,963)" d="m0 0h59v1l-56 1-4 4-1 5 1 60 1 1 61 1v1l-59 1-3 1-4-4-1-2v-65l3-4z" fill="#4D8187"/>
<path transform="translate(372,772)" d="m0 0 3 1 1 8-5 15-3 7h-2l-2 5-3 1-6-4-1-4 1-11 4-6 3-3h5l2 2z" fill="#FCB49A"/>
<path transform="translate(1310,374)" d="m0 0 1 4-11 22-1 1h-11l-16-2v-2l23-13 14-9z" fill="#3A855F"/>
<path transform="translate(591,750)" d="m0 0 2 3 1 31h64l3-1v4l-4 2h-60l-6-3-2-4v-31z" fill="#4E8C6E"/>
<path transform="translate(312,1091)" d="m0 0h1l2 8v7l-4 4-5 1h-11l-3-3 1-16z" fill="#240F0B"/>
<path transform="translate(215,1091)" d="m0 0h19v15l-2 4-6 1-12-2-3-4 1-9z" fill="#240F0A"/>
<path transform="translate(904,507)" d="m0 0h98l2 4h-94l-6-3z" fill="#FAFCFD"/>
<path transform="translate(774,872)" d="m0 0h37l5 3-1 2-5 2-12 1h-29l-10-2-1-2 9-3z" fill="#FAFCFD"/>
<path transform="translate(505,646)" d="m0 0h3v45h-4l-6-10-2-7v-9l3-10 5-8z" fill="#ECF3FD"/>
<path transform="translate(680,663)" d="m0 0 2 3 5 2h6l1 5-13 1-58 1-3-1v-2h-2l-1 2-1-2 1-4 2 1 1-1 6-1 1 2h-5v2h6v-3l7-1v3l6-2v2l3-1 10 2 3 1 2-4 3 1v3h2v-3l5 1 3-1 2 1 1-1 3-4 1 1z" fill="#F9FBFD"/>
<path transform="translate(588,730)" d="m0 0 4 2 1-2v6l5 4v6l-1 2-3 1-2 4-1-2h-2v2l-9 2-4 1-4-6 2-4 8-7z" fill="#93675D"/>
<path transform="translate(296,759)" d="m0 0 10 2 24 7 27 7 4 1v2l-7-1v2l6 1v1l-8-1-39-11v2h2v2l-9-2-7-2 4-1h4l-12-4z" fill="#7CA0DC"/>
<path transform="translate(304,793)" d="m0 0 17 4 24 7 5 2-6 8-1 2-9-3-11-6-10-7-9-6z" fill="#F7FAFD"/>
<path transform="translate(309,713)" d="m0 0 16 4 47 13 1 2-16-4v2l5 1-4 1-33-9v2l5 1-4 1-18-5-1-2 3-1-2-2h8l-7-3z" fill="#CDE0DE"/>
<path transform="translate(706,998)" d="m0 0h42v9h-4l-1-1-36-1-1-1z" fill="#F9FBFC"/>
<path transform="translate(521,643)" d="m0 0 3 1-4 2 1 3h2v2l-10 6-2 3-1 5v8l3 7 6 4 4 1v2l-3 1-10-7 1 6 12 3 10-1 4-1-3 3-3 1h-14l-7-3-2 4-2-2h2l-1-6v-35l8-5z" fill="#BED6FE"/>
<path transform="translate(594,712)" d="m0 0h66v1l-13 1 11 1v1l-64 1-1 13-1 2-3-1v-13l3-5z" fill="#509362"/>
<path transform="translate(1007,979)" d="m0 0h43l9 1v5h-48l-4-1z" fill="#FAFCFD"/>
<path transform="translate(1054,1088)" d="m0 0 2 1 4-1 4 2 4 6-3 11-2 1h-16l3-9z" fill="#BED6FE"/>
<path transform="translate(754,977)" d="m0 0 1 4-1 9h-1v-5h-47v-6h45l3 1z" fill="#F9FAFB"/>
<path transform="translate(269,739)" d="m0 0 4 5 1 3-3 8-2 8-2 4-2 1-1 5-11 1-2-4 8-5 2-3 2-12 5-10z" fill="#F5B095"/>
<path transform="translate(518,820)" d="m0 0 3 3-1 9h1l1 17-1 14-3 9-2-4-2-14v-11l2-16z" fill="#BED6FF"/>
<path transform="translate(855,728)" d="m0 0h6l1 1v5h-42v-5z" fill="#FAFCFD"/>
<path transform="translate(303,698)" d="m0 0 10 2 8 2v2l-9-1-8-2-2 11-12 43-8 28h-2l1-7 3-11 2-5 4-17 12-43z" fill="#4A6B50"/>
<path transform="translate(520,656)" d="m0 0h5l-2 3v20l1 2-6-1-6-6v-10l6-7z" fill="#BED6FE"/>
<path transform="translate(286,758)" d="m0 0 1 2-3 9-4 14-5-1-6-3 1-6 11-12z" fill="#FAB399"/>
<path transform="translate(477,758)" d="m0 0h1l2 7 2 3-1 9 1 8-3 7v3l-8 1 3-12v-10z" fill="#93655D"/>
<path transform="translate(332,745)" d="m0 0 8 1 25 7 2 2-4 1 3 2-8-1-21-6 1 3-11-2-7-2 4-1 9 1-6-2v-1h5z" fill="#98B6DD"/>
<path transform="translate(298,787)" d="m0 0 8 1 49 14-4 1-10-3h-3l1 2-11-2-25-7-1-2h3v-2l-7-1z" fill="#B1C8E9"/>
<path transform="translate(723,654)" d="m0 0h1v14l-1 3-7-2-2 1-2-1v2h-2l-2-15 6 1 8-1z" fill="#D2E2FD"/>
<path transform="translate(344,699)" d="m0 0 5 1 3 2v8h3v2h-7l-4-2-5 1v-2h-2v2h-3l-1-2-14-4 2-2 10 2 4 1 1-2 4 2 1-5z" fill="#396E51"/>
<path transform="translate(654,963)" d="m0 0h5l-1 4h-61l1-3z" fill="#509363"/>
<path transform="translate(425,456)" d="m0 0 2 1-3 6-2 9v3l-7 1h-16l1-3v2l4-2 18-14z" fill="#3C8561"/>
<path transform="translate(596,1037)" d="m0 0h64v2l-5 1h-57z" fill="#438162"/>
<path transform="translate(591,843)" d="m0 0 1 3v27l1 32 1 5 3 3-6-1-2-4v-61z" fill="#33775D"/>
<path transform="translate(593,908)" d="m0 0 4 2 54 1v1l9 1v1l-28 1-37-1 1-2-3-2z" fill="#41826C"/>
<path transform="translate(592,964)" d="m0 0 3 1-4 4v65l4 1 61 1v1l-59 1-3 1-4-4-1-2v-65z" fill="#528C82"/>
<path transform="translate(1311,1062)" d="m0 0h22l1 4-6 2-8 1h-11l-1 3v-8z" fill="#F1B958"/>
<path transform="translate(1239,1061)" d="m0 0 10 1 12 6 1 4-5 1-17-6-3-2z" fill="#F8BE58"/>
<path transform="translate(1171,379)" d="m0 0 3 1-2 4-14 14-10 18-6 11h-1l1-7 8-15 8-12 7-8 5-4z" fill="#29704F"/>
<path transform="translate(506,332)" d="m0 0h1v6l-9 3-12 3-13 1-11 4-5 4-1 3h-4v-2l5-5 10-6 9-2 17-2 11-4h2z" fill="#29704F"/>
<path transform="translate(849,650)" d="m0 0 3 3 4-2 2 1v5l-5 1h-5v-3l-8 2h-5v2h-3v-2l-5 1-1-3 2-3h6l-1 3 7-3z" fill="#FAFCFD"/>
<path transform="translate(936,608)" d="m0 0h5v8 3 5l-6 4-4 4h-6l-1-3 5-2 5-7h2z" fill="#F9FBFD"/>
<path transform="translate(916,587)" d="m0 0h21l5 1-2 1v2l-8 3h-4v-2l-7 1-8-1-2-3z" fill="#F6F9FD"/>
<path transform="translate(1011,588)" d="m0 0 38 1 6 1-1 2-25 1-6 1-12-4z" fill="#F6F9FD"/>
<path transform="translate(322,768)" d="m0 0h8l27 7 4 1v2l-7-1-1 2-29-8-2-1z" fill="#BDD1F0"/>
<path transform="translate(1011,652)" d="m0 0h10l4 1 1 3 1 6-2 3-4-1-5-7v-2h-2v5l-3-1-2-6z" fill="#FAFCFD"/>
<path transform="translate(467,380)" d="m0 0h40l-1 3h-40l-16 3-5 1 2-3 11-3z" fill="#29704F"/>
<path transform="translate(988,653)" d="m0 0h18l2 2-2 2h-2v7l-2 2-4-8-2-1h-6l-4 9-2-3 2-9z" fill="#F9FBFD"/>
<path transform="translate(1052,634)" d="m0 0 4 2 1 3-17 3-4 2-2-2-8-1v-1l5-1 1-2 11-1z" fill="#F9FBFD"/>
<path transform="translate(308,738)" d="m0 0 11 2 6 2v1l-5 1 3 2-8-1v2l5 1-4 1-14-4v-1l5-1-5-2v-1z" fill="#ADC6DF"/>
<path transform="translate(457,890)" d="m0 0h5l2 3-1 9-1 3-4-1-4-3 1-8z" fill="#8F685F"/>
<path transform="translate(588,571)" d="m0 0h24l-1 2 2 2-7 1h-18z" fill="#FAFCFD"/>
<path transform="translate(591,750)" d="m0 0 2 3v27l-1-4h-2v6h-1v-31z" fill="#4E8F67"/>
<path transform="translate(507,650)" d="m0 0h1v32h2l1 5 12 3 10-1 4-1-3 3-3 1h-14l-7-3-2 4-2-2h2l-1-6z" fill="#C5DAFE"/>
<path transform="translate(897,638)" d="m0 0v3l-2 3 5 1v7l-4 1-8-1 5-9h-13v-1l12-1z" fill="#D2E2FD"/>
<path transform="translate(588,587)" d="m0 0h10l14 1v3l-2 1h-22z" fill="#FAFCFD"/>
<path transform="translate(590,978)" d="m0 0h1l1 11 1 45h-2l-1-2z" fill="#29704F"/>
<path transform="translate(308,717)" d="m0 0 8 1 21 6-4 1-8-2v2l5 1-4 1-18-5-1-2 3-1z" fill="#8DAEC9"/>
<path transform="translate(296,759)" d="m0 0 10 2 13 4-1 3h-11l-12-4z" fill="#A0BCE5"/>
<path transform="translate(896,641)" d="m0 0 6 1 2 3-1 7-1 3-4 1h-11v-4h12v-7h-5z" fill="#F8FBFD"/>
<path transform="translate(1038,645)" d="m0 0 2 2v2h-2l-2 5-3 7-2 11-3-1v-8l4-11z" fill="#FAFCFD"/>
<path transform="translate(378,744)" d="m0 0 2 2-2 10-4 15-3 9-2 4-2-2 8-27z" fill="#586140"/>
<path transform="translate(930,792)" d="m0 0 8 2 16 5 5 3v1l-10-1-16-6-3-2z" fill="#F1F6FD"/>
<path transform="translate(319,743)" d="m0 0h10l3 1v3l-2 1 4 2-1 1-9-1-9-3v-2h5z" fill="#D5E4F0"/>
<path transform="translate(926,613)" d="m0 0h4v5l-3 3-10 3-2-1v-3z" fill="#F0F6FD"/>
<path transform="translate(323,795)" d="m0 0h8l24 7-4 1-10-3h-3l1 2-11-2v-2l-5-1z" fill="#9FBBDC"/>
<path transform="translate(337,709)" d="m0 0h4l4 1 10 2 1-2 1 2 3 2-5 1-1 2-19-5 2-1z" fill="#3F7855"/>
<path transform="translate(343,723)" d="m0 0 8 1 21 6 1 2-16-4v2l5 1-4 1-14-4 4-1h4l-9-3z" fill="#82A6CD"/>
<path transform="translate(1034,618)" d="m0 0 4 1 7 5-1 3h-6l-7-4 1-3h2z" fill="#F4F8FD"/>
<path transform="translate(966,1092)" d="m0 0 7 6 9 10 12 13 1 3-4-2-10-11-7-8-8-9z" fill="#2E7754"/>
<path transform="translate(588,555)" d="m0 0h21l-2 2-5 1v1l-14 1z" fill="#FAFCFD"/>
<path transform="translate(495,437)" d="m0 0 1 3-9 17-3 4 1 3-7 1 7-11 6-10 3-6z" fill="#2C7250"/>
<path transform="translate(471,1075)" d="m0 0h17l4 3-5 1h-12l-5-1z" fill="#ECB159"/>
<path transform="translate(332,745)" d="m0 0 8 1-4 1v2l5 1-4 1 1 3-11-2-7-2 4-1 9 1-6-2v-1h5z" fill="#93B3D5"/>
<path transform="translate(332,721)" d="m0 0h8l3 1v2l9 2 1 2-13-1-3-1v-2l-5-1z" fill="#AAC3E6"/>
<path transform="translate(903,601)" d="m0 0 3 1-1 1 5 1-2 4-6 4h-2v-7z" fill="#F2F7FD"/>
<path transform="translate(289,750)" d="m0 0h1l-1 9-7 24h-2l1-7 3-11 2-5 2-9z" fill="#53563F"/>
<path transform="translate(340,773)" d="m0 0h9l12 3v2l-7-1-1 2-13-4z" fill="#CCDCF5"/>
<path transform="translate(888,735)" d="m0 0 6 1 2 1-1 5-5 3v-2l-3 1-1-2 3-2-2-1z" fill="#D4E4FD"/>
<path transform="translate(591,873)" d="m0 0h1l1 32 1 5 3 3-6-1-1-2z" fill="#38845F"/>
<path transform="translate(902,539)" d="m0 0h26v2l-4 1h-20l-4-2z" fill="#FAFCFD"/>
<path transform="translate(453,401)" d="m0 0m-7 1h7v2l-24 3h-4v-3z" fill="#29704F"/>
<path transform="translate(347,750)" d="m0 0 11 1 9 3v1l-8 1-12-4z" fill="#C1D5EC"/>
<path transform="translate(357,728)" d="m0 0 7 1 7 2v3h2v2l-11-3v-2l-5-1z" fill="#C8D9F4"/>
<path transform="translate(508,673)" d="m0 0h2l3 7 6 4 4 1v2l-3 1-10-7-2 1z" fill="#BED6FF"/>
<path transform="translate(1306,374)" d="m0 0 4 1-10 7-8 5h-3v-2l16-10z" fill="#286A4A"/>
<path transform="translate(295,728)" d="m0 0h1l-1 9-4 14-2-1 2-10 3-11z" fill="#4C6143"/>
<path transform="translate(589,718)" d="m0 0 2 2 2-1v11l-1 2-3-1z" fill="#4B8D65"/>
<path transform="translate(344,701)" d="m0 0 5 1 1 1v6l-8-2 1-5z" fill="#F4F8FD"/>
<path transform="translate(506,1075)" d="m0 0h19v3h-20z" fill="#FEC35B"/>
<path transform="translate(298,787)" d="m0 0 8 1 10 3v1h-6v2l-7-1-1-2h3v-2l-7-1z" fill="#94B3E5"/>
<path transform="translate(307,742)" d="m0 0 9 2-1 3 5 1-4 1-14-4v-1l5-1z" fill="#A9C2E7"/>
<path transform="translate(290,784)" d="m0 0 8 2v2l7 1v2l-9-1-7-3z" fill="#CEDDF3"/>
<path transform="translate(336,799)" d="m0 0 9 1 9 3-1 2-7-1-8-3z" fill="#E1ECFD"/>
<path transform="translate(359,714)" d="m0 0 8 1 11 3-2 2-10-2-7-2z" fill="#48634A"/>
<path transform="translate(513,648)" d="m0 0h3v2l2 1-9 6v-6z" fill="#D2E2FD"/>
<path transform="translate(1e3 637)" d="m0 0h13v2l3 1-13 1v-2h-3z" fill="#FAFCFD"/>
<path transform="translate(1053,640)" d="m0 0h6l2 4h-11l-1-3z" fill="#F7FAFD"/>
<path transform="translate(237,768)" d="m0 0 12 2-3 1v2h-8l-2-1z" fill="#EDB49B"/>
<path transform="translate(872,633)" d="m0 0h2l1 4 2 1-1 5-5-2z" fill="#F3F7FD"/>
<path transform="translate(307,764)" d="m0 0h8l4 1-1 3h-11z" fill="#D0DFF5"/>
<path transform="translate(910,624)" d="m0 0h3l-1 4-4 2-8 6 2-4z" fill="#E8F0FD"/>
<path transform="translate(341,709)" d="m0 0 4 1 10 2 1-2 1 2 3 2-1 1-7-1-10-3z" fill="#4C7C7D"/>
<path transform="translate(860,636)" d="m0 0h8l-1 3-3-1v4h-5z" fill="#FAFCFD"/>
<path transform="translate(308,738)" d="m0 0 7 1-4 1v2l5 1-4 1-10-3v-1z" fill="#94B3DC"/>
<path transform="translate(965,656)" d="m0 0 5 1-1 2h-2l-1 2h-3v-2l-4 1v-3z" fill="#D4E3FD"/>
<path transform="translate(950,608)" d="m0 0h2v8l2 1-1 3h-4z" fill="#D3E3FD"/>
<path transform="translate(591,1013)" d="m0 0h1l1 21h-2l-1-2v-9z" fill="#2F7657"/>
<path transform="translate(339,723)" d="m0 0 7 1 7 3v1l-9-1-5-2z" fill="#E9F1FD"/>
<path transform="translate(344,699)" d="m0 0 5 1 3 2-1 7h-1l-2-7-5 1-2 3-1-3z" fill="#537D5B"/>
<path transform="translate(319,766)" d="m0 0 7 1-4 1v2l-10-1-3-2h9z" fill="#9DB9E7"/>
<path transform="translate(320,749)" d="m0 0 13 1h4l1 4-11-2-7-2z" fill="#94B2E3"/>
<path transform="translate(924,592)" d="m0 0h4l1 3-6 3-3-1v-3z" fill="#CFE0FD"/>
<path transform="translate(590,776)" d="m0 0h2l3 10-3 1-2-3z" fill="#397D56"/>
<path transform="translate(296,759)" d="m0 0 5 1 3 4-5 1-4-1z" fill="#BCD0F1"/>
<path transform="translate(378,744)" d="m0 0 2 2-2 10-2 4-1-5z" fill="#4C6348"/>
<path transform="translate(589,668)" d="m0 0h4l3 3 1 2h-10v-2h2z" fill="#FAFCFD"/>
<path transform="translate(636,538)" d="m0 0h12l4 2-3 1h-10z" fill="#FAFCFD"/>
<path transform="translate(309,713)" d="m0 0 16 4-4 2h-5v-2l-7-3z" fill="#A7C8AE"/>
<path transform="translate(592,713)" d="m0 0h5v3l-3 1-4 4 1-7z" fill="#337657"/>
<path transform="translate(707,1017)" d="m0 0 4 2-1 5h-4z" fill="#FAFCFD"/>
<path transform="translate(590,904)" d="m0 0 3 1 1 5 3 3-6-1-1-2z" fill="#387C58"/>
<path transform="translate(289,750)" d="m0 0h1l-1 9-3 8-1-3 3-13z" fill="#464830"/>
<path transform="translate(308,700)" d="m0 0 9 1 4 1v2l-9-1-4-1z" fill="#475F41"/>
<path transform="translate(782,663)" d="m0 0 2 4v6h-4l1-8z" fill="#FAFCFD"/>
<path transform="translate(860,652)" d="m0 0 4 1v2l2 1-3 2-4-1z" fill="#FAFCFD"/>
<path transform="translate(984,1112)" d="m0 0 7 6 4 5h-3l-8-9z" fill="#2F7856"/>
<path transform="translate(611,667)" d="m0 0 3 1 1 5-5 1v-6z" fill="#FAFCFD"/>
<path transform="translate(425,404)" d="m0 0h12l-1 2-11 1z" fill="#2D7350"/>
<path transform="translate(315,745)" d="m0 0 8 1 3 3-9-1-2-1z" fill="#EDF3FD"/>
<path transform="translate(318,721)" d="m0 0 7 1v3l5 1-4 1-3-1v-2l-5-1z" fill="#C3D4F0"/>
<path transform="translate(897,638)" d="m0 0v3l-4 4v-2h-13v-1l12-1z" fill="#C2D8FE"/>
<path transform="translate(417,341)" d="m0 0m-11 1h11v2l-3 2-5-1z" fill="#327653"/>
</svg>
